<?xml version="1.0" encoding="UTF-8"?>
<svg id="Layer_2" data-name="Layer 2" xmlns="http://www.w3.org/2000/svg" viewBox="0 0 1593.51 615.86">
  <defs>
    <style>
      .cls-1 {
        fill: #ff6100;
        stroke-width: 0px;
      }
    </style>
  </defs>
  <g id="logo">
    <path class="cls-1" d="m1306.16,108.2v-51.93l-41.37-48.64h-152.09l-46.89,55.03v210.7s46.89,54.41,46.89,54.41h148.33l45.13-49.22v-46.53l-8.35-5.67h-36.79l-8.9,5.67v37.91l-6.02,6.9h-121.82l-6.13-6.9V87.46l-26.52-23.88v-9.3h154.07l6.43,6.82v47.73l8.9,4.53h36.79l8.35-5.18ZM1593.51,13.98v307.34l-5.54,5.71h-42.18l-5.95-5.71v-134.64h-146.94v135.58l-6.15,4.76h-41.16l-6.36-4.76V13.98l6.36-3.73h41.16l6.15,3.73v159.06h5.07l29.82-30.34h112.06V13.98l5.95-3.73h42.18l5.54,3.73Zm-828.09-3.73l7.36,6.48v34.95l-7.36,6.48h-101v266.11l-6.86,4.42h-35.33l-6.86-4.42V58.15l-106.23-1.65-7.02-5.93V16.17l7.02-5.93h106.23v38.14h12.76l34.03-38.14h103.27Zm267.96,278.2v30.55l-7.85,7.48h-187.05l-33.57-38.03V49.42l33.57-39.17h187.05l7.85,7.78v30.61l-7.85,8.21h-164.91l-9.26,9.53v105.54h8.91l27.29-31.88h125.86l7.85,4.99v36.52l-7.85,4.93h-162.05v87.23l9.52,7.46h164.65l7.85,7.29Zm-561.11,315.25l-10.14,10.52h-102.36L122.43,341.2h-25.06v262.49l-12.95,10.52H9.88l-9.88-10.52V12.34L11.96,0h72.46l12.95,12.34v173.81l-78.8,91.94,4.77,7.97,83.13-.36L349.54,0h99.34l9.96,15.46-237.76,284.58-.82,7.06,252,296.58Zm436-15.1v-180.33h-28.57v203.89h110.95v-23.56h-82.38Zm145.44,0v-180.33h-28.57v203.89h110.95v-23.56h-82.38Zm213.8-67.69v-23.08h-71.36v-64.4h82.74v-23.68h-111.3v203.89h111.9v-23.56h-83.33v-69.18h71.36Zm314.04-1.49v-23.08h-71.36v-64.4h82.74v-23.68h-111.3v203.89h111.9v-23.56h-83.33v-69.18h71.36Zm-905.85,65.6v-36.98h-24.58v26.09l-12.21,15.41h-62.09l-11.52-15.28v-129.26l11.29-14.11h62.54l11.98,14.24v23.07h24.58v-34.44l-27.49-27.54h-80.92l-26.56,27.66v151.02l26.33,29.31h81.37l27.26-29.19Zm772.73,1.59v-54.12l-30.04-35.14h-55.11v24.32h54.83l5.69,7.59v46.43l-16.87,15.45h-52.65l-16.17-15.32v-131.83l15.95-14.15h53.11l16.64,14.27v29.19h24.64v-40.59l-32.18-27.61h-71.53l-31.25,27.73v153.64l31.02,29.39h71.99l31.96-29.26Zm-602.23-1.54v-151.02l-26.59-27.47h-86.29l-26.56,27.66v151.02l26.33,29.31h86.8l26.3-29.51Zm-114.86-10.44v-129.26l14.27-14.11h62.07l13.94,13.98v129.26l-13.94,15.42h-62.07l-14.27-15.28Z"/>
  </g>
</svg>