<?xml version="1.0" encoding="utf-8"?>
<!-- Generator: Adobe Illustrator 28.0.0, SVG Export Plug-In . SVG Version: 6.00 Build 0)  -->
<svg version="1.1" id="Layer_1" xmlns="http://www.w3.org/2000/svg" xmlns:xlink="http://www.w3.org/1999/xlink" x="0px" y="0px"
	 viewBox="0 0 1978.9 110" style="enable-background:new 0 0 1978.9 110;" xml:space="preserve">
<style type="text/css">
	.st0{fill:none;stroke:#FFFFFF;stroke-width:5;stroke-miterlimit:10;}
	.st1{fill:#FFFFFF;}
	.st2{fill:#C8C9CA;}
</style>
<g>
	<g>
		<line class="st0" x1="477.5" y1="36.2" x2="515" y2="73.8"/>
		<line class="st0" x1="477.5" y1="73.8" x2="515" y2="36.2"/>
	</g>
	<g>
		<line class="st0" x1="1289.6" y1="36.2" x2="1327.1" y2="73.8"/>
		<line class="st0" x1="1289.6" y1="73.8" x2="1327.1" y2="36.2"/>
	</g>
	<g>
		<polygon class="st1" points="1761,73.7 1795.4,73.7 1795.4,85.9 1747.4,85.9 1747.4,24.1 1761,24.1 		"/>
		<polygon class="st1" points="1686.2,86 1734.2,86 1734.2,73.8 1699.7,73.8 1699.7,61.1 1730.2,61.1 1730.2,49 1699.7,49 
			1699.7,36.2 1734.2,36.2 1734.2,24.1 1686.2,24.1 		"/>
		<rect x="1808.3" y="24.1" class="st1" width="13.6" height="61.9"/>
		<polygon class="st1" points="1547.3,24.1 1533.7,24.1 1533.7,86 1581.7,86 1581.7,73.7 1547.3,73.7 		"/>
		<rect x="1594.6" y="24.1" class="st1" width="13.6" height="61.9"/>
		<polygon class="st1" points="1952.2,24.1 1952.2,62.7 1923.3,24.7 1922.8,24.1 1909.7,24.1 1909.7,28.8 1909.7,85.9 1923.3,85.9 
			1923.3,46.7 1952.2,84.6 1953.2,85.9 1959.3,85.9 1965.8,85.9 1965.8,24.1 		"/>
		<path class="st1" d="M1896.4,42.4c-1.6-3.9-3.9-7.2-6.8-10.1s-6.4-5.1-10.4-6.8c-4-1.7-8.4-2.5-13.2-2.5c-4.8,0-9.2,0.8-13.3,2.5
			c-4.1,1.7-7.6,4-10.5,6.9s-5.2,6.3-6.9,10.2c-1.7,3.9-2.5,8-2.5,12.4v0.2c0,4.4,0.8,8.6,2.4,12.4c1.6,3.9,3.9,7.2,6.8,10.1
			s6.4,5.1,10.4,6.8c4,1.7,8.4,2.5,13.2,2.5c4.8,0,9.2-0.8,13.3-2.5c4.1-1.7,7.6-4,10.5-6.9s5.2-6.3,6.9-10.2
			c1.7-3.9,2.5-8,2.5-12.4v-0.2C1898.9,50.4,1898.1,46.3,1896.4,42.4L1896.4,42.4z M1884.8,55.2c0,2.7-0.5,5.2-1.4,7.6
			s-2.2,4.4-3.9,6.2s-3.7,3.2-6,4.2s-4.9,1.5-7.7,1.5c-2.8,0-5.4-0.5-7.7-1.6c-2.3-1.1-4.3-2.5-6-4.3s-3-3.9-4-6.3
			c-0.9-2.4-1.4-4.9-1.4-7.6v-0.2c0-2.7,0.5-5.2,1.4-7.6c0.9-2.4,2.2-4.4,3.9-6.2c1.7-1.8,3.6-3.2,5.9-4.2s4.9-1.5,7.7-1.5
			s5.3,0.5,7.7,1.6c2.3,1,4.4,2.5,6.1,4.3c1.7,1.8,3,3.9,4,6.3c0.9,2.4,1.4,4.9,1.4,7.6L1884.8,55.2L1884.8,55.2z"/>
		<polygon class="st1" points="1676.5,24.1 1660.1,24.1 1635,50.6 1635,24.1 1621.3,24.1 1621.3,86 1635,86 1635,67 1642.1,59.6 
			1661.3,86 1677.6,86 1651.3,50.3 		"/>
		<polygon class="st1" points="1473.7,46.6 1509.7,24.1 1473.7,24.1 		"/>
		<path class="st1" d="M1473.7,69.9v16h-48V46.6l-36-22.5h36l0,0h6.4V70C1432.1,69.9,1473.7,69.9,1473.7,69.9z"/>
	</g>
	<g>
		<polygon class="st2" points="987.6,27.4 992.1,27.4 992.1,37.1 1000.2,27.4 1005.8,27.4 996.5,38 1006.1,49.9 1000.3,49.9 
			992.2,39.4 992.1,39.4 992.1,49.9 987.6,49.9 		"/>
		<path class="st2" d="M1014.5,32.9c4.9,0,8.7,3.3,8.7,8.8c0,4.8-3.2,8.5-8.7,8.5c-5.5,0-8.6-3.8-8.6-8.5
			C1005.8,36.2,1009.6,32.9,1014.5,32.9 M1014.5,46.9c3.3,0,4.2-3,4.2-5.7c0-2.5-1.4-4.9-4.2-4.9c-2.8,0-4.1,2.4-4.1,4.9
			C1010.3,43.9,1011.2,46.9,1014.5,46.9"/>
		<path class="st2" d="M1026,33.3h3.8v3.8h0.1c0.2-1.5,2-4.1,4.5-4.1c0.4,0,1.5,0.2,2.1,0.5v4.1c-0.4-0.2-1.3-0.4-2.1-0.4
			c-3.5,0-4.1,4.4-4.1,6.8v6.1h-4.3V33.3z"/>
		<path class="st2" d="M1052.2,48.9c-1.6,0.9-3.4,1.3-5.7,1.3c-5.5,0-8.6-3.2-8.6-8.6c0-4.8,2.5-8.7,7.7-8.7c6.1,0,7.9,4.2,7.9,10
			H1042c0.2,2.7,2.1,4.2,4.7,4.2c2.1,0,3.9-0.8,5.5-1.7V48.9z M1049.3,40c-0.1-2.1-1.1-3.9-3.5-3.9c-2.4,0-3.6,1.7-3.8,3.9H1049.3z"
			/>
		<path class="st2" d="M1057.3,34.2c1.7-0.8,3.9-1.3,5.8-1.3c5,0,7.1,2.1,7.1,7V42c0,1.7,0,2.9,0.1,4.1c0,1.3,0.1,2.4,0.2,3.7h-3.8
			c-0.2-0.9-0.2-2-0.2-2.5h-0.1c-1,1.8-3.1,2.9-5.1,2.9c-2.9,0-5.8-1.8-5.8-4.9c0-2.5,1.2-3.9,2.8-4.7c1.6-0.8,3.8-1,5.6-1h2.4
			c0-2.7-1.2-3.6-3.7-3.6c-1.8,0-3.7,0.7-5.1,1.8L1057.3,34.2z M1062.3,47.1c1.3,0,2.3-0.6,3-1.5c0.7-0.9,0.9-2.1,0.9-3.4h-1.9
			c-1.9,0-4.8,0.3-4.8,2.9C1059.6,46.5,1060.8,47.1,1062.3,47.1"/>
		<path class="st2" d="M1095.1,31.5c-1.4-0.6-3-1-4.6-1c-1.5,0-3.5,0.7-3.5,3.1c0,3.9,9.8,2.3,9.8,9.8c0,4.9-3.9,6.8-8.4,6.8
			c-2.4,0-4.7-0.4-6.5-1.4l0.6-3.9c1.4,1.2,3.9,1.7,5.7,1.7c1.7,0,4-0.9,4-2.9c0-4.3-9.8-2.5-9.8-9.9c0-5,3.9-6.8,7.8-6.8
			c1.9,0,3.7,0.3,5.4,0.8L1095.1,31.5z"/>
		<polygon class="st2" points="1100.5,27.4 1107.7,27.4 1113,44.4 1113.1,44.4 1118.4,27.4 1125.6,27.4 1125.6,49.9 1121.3,49.9 
			1121.3,31.3 1121.2,31.3 1115.2,49.9 1110.9,49.9 1104.8,31.3 1104.8,31.4 1104.8,49.9 1100.5,49.9 		"/>
		<polygon class="st2" points="1130.3,27.4 1143.6,27.4 1143.6,31 1134.8,31 1134.8,36.5 1142.8,36.5 1142.8,40 1134.8,40 
			1134.8,46.3 1143.6,46.3 1143.6,49.9 1130.3,49.9 		"/>
		<path class="st2" d="M1157.2,36.8c-1.3-0.4-2.3-0.7-3.9-0.7c-1.2,0-2.5,0.4-2.5,1.8c0,2.6,7.5,1,7.5,6.9c0,3.9-3.4,5.4-6.9,5.4
			c-1.6,0-3.3-0.3-4.9-0.7l0.3-3.5c1.4,0.7,2.8,1.1,4.2,1.1c1.1,0,2.8-0.4,2.8-2c0-3.2-7.5-1-7.5-7c0-3.6,3.1-5.1,6.5-5.1
			c2,0,3.3,0.3,4.7,0.6L1157.2,36.8z"/>
		<path class="st2" d="M1109.4,69.9c-1.3-0.5-2.3-0.7-3.9-0.7c-1.2,0-2.5,0.4-2.5,1.8c0,2.6,7.5,1,7.5,6.9c0,3.9-3.4,5.4-6.9,5.4
			c-1.6,0-3.3-0.3-4.9-0.7l0.3-3.5c1.3,0.7,2.8,1.1,4.2,1.1c1.1,0,2.8-0.4,2.8-2c0-3.2-7.5-1-7.5-7c0-3.6,3.1-5.1,6.5-5.1
			c2,0,3.3,0.3,4.7,0.6L1109.4,69.9z"/>
		<path class="st2" d="M999.6,64.7c-1.4-0.6-3-1-4.6-1c-1.5,0-3.5,0.7-3.5,3.1c0,3.9,9.8,2.2,9.8,9.8c0,4.9-3.9,6.8-8.4,6.8
			c-2.4,0-3.5-0.3-5.8-0.9l0.4-4.1c1.5,0.8,3.3,1.4,5.1,1.4c1.7,0,4-0.9,4-2.9c0-4.3-9.8-2.5-9.8-9.9c0-5,3.9-6.8,7.8-6.8
			c1.9,0,3.7,0.3,5.4,0.8L999.6,64.7z"/>
		<path class="st2" d="M1005.6,69.6h-3.2v-3.1h3.2v-3.3l4.3-1.4v4.7h3.8v3.1h-3.8v7.7c0,1.4,0.4,2.7,2,2.7c0.8,0,1.5-0.2,2-0.5
			l0.1,3.4c-0.9,0.3-1.9,0.4-3.2,0.4c-3.4,0-5.2-2.1-5.2-5.4V69.6z"/>
		<path class="st2" d="M1017.6,67.3c1.7-0.8,3.9-1.2,5.7-1.2c5.1,0,7.1,2.1,7.1,7v2.1c0,1.7,0,2.9,0.1,4.1c0,1.3,0.1,2.4,0.2,3.7
			h-3.8c-0.2-0.9-0.2-2-0.2-2.5h-0.1c-1,1.8-3.1,2.9-5.1,2.9c-2.9,0-5.8-1.8-5.8-4.9c0-2.5,1.2-3.9,2.8-4.7c1.6-0.8,3.8-1,5.6-1h2.4
			c0-2.7-1.2-3.6-3.7-3.6c-1.8,0-3.7,0.7-5.1,1.8L1017.6,67.3z M1022.6,80.2c1.3,0,2.4-0.6,3-1.5c0.7-0.9,0.9-2.1,0.9-3.4h-1.9
			c-1.9,0-4.8,0.3-4.8,2.9C1019.9,79.6,1021.1,80.2,1022.6,80.2"/>
		<path class="st2" d="M1033.6,66.4h3.8v3.8h0.1c0.2-1.5,2-4.1,4.5-4.1c0.4,0,0.9,0,1.3,0.1v4.1c-0.4-0.1-1.2-0.1-1.9-0.1
			c-3.6,0.2-3.5,4.4-3.5,6.8V83h-4.3V66.4z"/>
		<path class="st2" d="M1048.7,69.6h-3.2v-3.1h3.2v-3.3l4.3-1.4v4.7h3.8v3.1h-3.8v7.7c0,1.4,0.4,2.7,2,2.7c0.8,0,1.5-0.2,2-0.5
			l0.1,3.4c-0.9,0.3-1.9,0.4-3.2,0.4c-3.4,0-5.2-2.1-5.2-5.4V69.6z"/>
		<path class="st2" d="M1075.7,83h-4.1v-2.3h-0.1c-1.3,1.6-3.2,2.6-5.4,2.6c-3.9,0-5.6-2.8-5.6-6.5V66.4h4.3v8.8c0,2,0,4.8,2.8,4.8
			c3.1,0,3.8-3.4,3.8-5.5v-8.1h4.3V83z"/>
		<path class="st2" d="M1079.6,66.4h4.1v2.3h0.1c1-1.6,2.6-2.7,5.1-2.7c5.1,0,6.9,4,6.9,8.6c0,4.5-1.9,8.7-7,8.7
			c-1.8,0-3.3-0.5-4.9-2.3h-0.1v8.6h-4.3V66.4z M1084,74.7c0,2.3,0.9,5.4,3.8,5.4c2.8,0,3.6-3.1,3.6-5.4c0-2.2-0.8-5.3-3.6-5.3
			C1085.1,69.4,1084,72.3,1084,74.7"/>
		<path class="st2" d="M1126.3,60.5h5.1l8.8,22.4h-5l-1.9-5.1h-9.1l-2,5.1h-4.7L1126.3,60.5z M1128.8,65L1128.8,65l-3.3,9.3h6.6
			L1128.8,65z"/>
		<path class="st2" d="M1157.4,66.4v14.9c0,4.5-1.8,8.7-8.7,8.7c-1.7,0-3.7-0.3-5.7-1.1l0.4-3.7c1.3,0.7,3.5,1.4,4.8,1.4
			c4.8,0,5-3.6,5-6.4h-0.1c-0.8,1.4-2.7,2.6-5.1,2.6c-4.9,0-6.8-3.9-6.8-8.4c0-4,2.1-8.6,7-8.6c2.2,0,3.9,0.7,5.1,2.6h0.1v-2.2
			H1157.4z M1153.1,74.5c0-2.8-1.1-5.1-3.6-5.1c-2.9,0-3.9,2.7-3.9,5.2c0,2.2,1.2,5,3.7,5C1152,79.6,1153.1,77.3,1153.1,74.5"/>
		<path class="st2" d="M1174.6,82c-1.6,0.9-3.4,1.3-5.7,1.3c-5.5,0-8.6-3.1-8.6-8.6c0-4.8,2.5-8.7,7.7-8.7c6.1,0,7.9,4.2,7.9,10
			h-11.4c0.2,2.7,2.1,4.2,4.7,4.2c2.1,0,3.9-0.8,5.5-1.7V82z M1171.7,73.1c-0.1-2.1-1.1-3.9-3.5-3.9c-2.4,0-3.6,1.7-3.8,3.9H1171.7z
			"/>
		<path class="st2" d="M1178.7,66.4h4.1v2.2h0.1c1.3-1.9,3.2-2.6,5.4-2.6c3.9,0,5.6,2.8,5.6,6.5V83h-4.3v-8.8c0-2,0-4.8-2.8-4.8
			c-3.1,0-3.8,3.4-3.8,5.5V83h-4.3V66.4z"/>
		<path class="st2" d="M1207.8,70c-0.8-0.4-1.6-0.6-2.9-0.6c-2.7,0-4.4,2.1-4.4,5.2c0,3.1,1.4,5.4,4.5,5.4c1.2,0,2.6-0.5,3.3-0.8
			l0.2,3.6c-1.3,0.4-2.5,0.5-4.3,0.5c-5.4,0-8.2-3.7-8.2-8.7c0-4.8,2.8-8.6,8-8.6c1.7,0,3,0.2,4.2,0.5L1207.8,70z"/>
		<path class="st2" d="M1218.6,78.5L1218.6,78.5l4.1-12.1h4.4l-6.2,16.4c-1.4,3.7-2.4,7.3-6.9,7.3c-1,0-2.1-0.2-3.1-0.4l0.3-3.2
			c0.5,0.2,1.2,0.3,2.2,0.3c1.7,0,2.8-1.2,2.8-3l-6.3-17.4h4.8L1218.6,78.5z"/>
		<path class="st2" d="M1171.1,34.2c1.7-0.8,3.9-1.3,5.8-1.3c5.1,0,7.1,2.1,7.1,7v2.1c0,1.7,0,2.9,0.1,4.1c0,1.3,0.1,2.4,0.2,3.7
			h-3.8c-0.2-0.9-0.2-2-0.2-2.5h-0.1c-1,1.8-3.2,2.9-5.1,2.9c-2.9,0-5.8-1.8-5.8-4.9c0-2.5,1.2-3.9,2.8-4.7c1.6-0.8,3.8-1,5.6-1h2.4
			c0-2.7-1.2-3.6-3.7-3.6c-1.8,0-3.7,0.7-5.1,1.8L1171.1,34.2z M1176.2,47.1c1.3,0,2.4-0.6,3-1.5c0.7-0.9,0.9-2.1,0.9-3.4h-1.9
			c-1.9,0-4.8,0.3-4.8,2.9C1173.5,46.5,1174.7,47.1,1176.2,47.1"/>
		<path class="st2" d="M1220.4,49.9h-4.1v-2.3h-0.1c-1,1.6-2.6,2.7-5.1,2.7c-5.1,0-6.9-4-6.9-8.6c0-4.5,1.9-8.7,7-8.7
			c1.8,0,3.3,0.5,4.9,2.3h0.1v-8.6h4.3V49.9z M1215.9,41.6c0-2.3-0.9-5.3-3.7-5.3c-2.8,0-3.6,3-3.6,5.3c0,2.2,0.8,5.2,3.5,5.2
			C1214.8,46.8,1215.9,43.9,1215.9,41.6"/>
		<path class="st2" d="M1186.8,33.3h4.1v2.3h0.1c1.3-1.9,3.2-2.6,5.4-2.6c3.9,0,5.6,2.8,5.6,6.5v10.5h-4.3v-8.8c0-2,0-4.8-2.8-4.8
			c-3.1,0-3.8,3.4-3.8,5.5v8.1h-4.3V33.3z"/>
		<polygon class="st2" points="876.5,83.5 876.5,50.4 857,82.6 843.6,82.6 824,50.4 824,83.5 808.9,83.5 808.9,26.5 824.9,26.5 
			850.7,68.5 876.5,26.5 892.1,26.5 892.1,83.5 		"/>
		<path class="st2" d="M782.6,47.6h-30.4c-1.3,0-2.4-0.5-3.3-1.3c-0.8-0.9-1.3-1.9-1.3-3c0-1.3,0.5-2.3,1.3-3.2
			c0.9-0.9,1.9-1.3,3.1-1.3h46.4V26.5h-48c-5.6,0-10.1,1.6-13.4,4.9c-3.4,3.4-5.1,7.4-5.1,12.1c0,4.8,1.7,8.9,5.1,12.4
			c3.4,3.5,7.9,5.2,13.4,5.2h31.9c1.4,0,2.5,0.5,3.5,1.5c0.9,0.9,1.4,2.1,1.4,3.5c0,1.4-0.5,2.5-1.5,3.5c-1,1-2.2,1.5-3.7,1.5h-47
			v12.3h47.6c5.6,0,10.2-1.8,13.7-5.4c3.5-3.6,5.3-7.9,5.3-12.8c0-4.8-1.8-8.9-5.3-12.5C792.9,49.3,788.3,47.6,782.6,47.6"/>
		<polygon class="st2" points="964.5,38.8 964.5,26.5 901.6,26.5 901.6,83.5 964.5,83.5 964.5,71.1 917.1,71.1 917.1,61.2 
			964.5,61.2 964.5,48.8 917.1,48.8 917.1,38.8 		"/>
		<path class="st2" d="M650.8,75.7c4.5,7.5,16.7,18.4,33.1,19.3c9.3,0.5,18-1.8,25-6.9c10.9-7.3,17.3-19.5,16.6-32.7
			c-0.7-12.9-12-24.1-23.4-23.6c-6.7,0.3-12.4,3.6-15.6,9c4.7,0.7,11.3,3.5,13.2,10.7c2,7.3-3.5,14.8-9.6,17c-0.1,0.2,0,0.5,0.3,0.5
			c8.9-1.1,19.1-7.3,17-23.4c2.4,8.5,0.8,19.6-5.8,26.9c-4.3,4.9-11.1,8.2-20.3,7.7c-0.5,0-0.8,0.7-0.1,0.9c9.5,2,17.9-0.8,23.9-5
			c6.9-4.9,10.8-12.9,11.4-21.2c1.1,12.5-4.1,23.9-17.9,30.8c-15.5,7.8-37.5,1.3-47.1-10.6C650.9,74.2,650.1,74.7,650.8,75.7"/>
		<path class="st2" d="M721.4,34.3c-4.5-7.5-16.7-18.4-33.1-19.3c-9.3-0.5-18,1.9-25,6.9c-10.9,7.3-17.3,19.5-16.6,32.7
			c0.7,13.2,11.9,24.1,23.4,23.6c6.7-0.3,12.4-3.6,15.6-9c-4.7-0.7-11.3-3.5-13.2-10.7c-2-7.3,3.5-14.8,9.6-17
			c0.1-0.2,0-0.5-0.3-0.5c-8.9,1.1-19.1,7.3-17,23.4c-2.4-8.5-0.8-19.6,5.8-26.9c4.3-4.9,11.1-8.2,20.3-7.7c0.5,0,0.8-0.7,0.1-0.9
			c-9.5-2-17.9,0.8-23.9,5c-6.9,4.9-10.8,12.9-11.4,21.2c-1.1-12.5,4.1-23.9,17.9-30.8c15.5-7.7,37.5-1.3,47.1,10.6
			C721.2,35.8,722,35.3,721.4,34.3"/>
		<polygon class="st2" points="612.8,53.2 650.1,83.5 628,83.5 593.2,56.3 593.2,83.5 577.6,83.5 577.6,26.5 593.2,26.5 593.2,50.7 
			625.2,26.5 646.6,26.5 		"/>
	</g>
	<g>
		<g>
			<path class="st1" d="M169.8,22.1v24.8h-4V26.9l-6.5,19.9h-3.9l-6.4-19.9v19.9h-4V22.1h6.1l6.3,19.3l6.3-19.3H169.8L169.8,22.1z"
				/>
			<path class="st1" d="M179.6,23.5c0,0.7-0.3,1.3-0.8,1.8c-0.5,0.5-1.1,0.8-1.8,0.8c-0.7,0-1.3-0.3-1.8-0.8
				c-0.5-0.5-0.8-1.1-0.8-1.8s0.3-1.3,0.8-1.8c0.5-0.5,1.1-0.8,1.8-0.8c0.7,0,1.3,0.3,1.8,0.8C179.4,22.2,179.6,22.8,179.6,23.5z
				 M175,46.8V29h4.1v17.8H175z"/>
			<path class="st1" d="M188.4,37.9v9h-4V29.1h3.9v2.4c0.4-0.8,1.1-1.5,2.1-2c0.9-0.5,1.9-0.8,2.9-0.8c2.1,0,3.7,0.7,5.1,2.1
				c1.2,1.5,1.9,3.3,1.9,5.8v10.3h-4v-9.3c0-1.9-0.3-3.3-0.9-4.2c-0.7-0.9-1.6-1.4-2.9-1.4c-0.7,0-1.3,0.2-1.9,0.7
				c-0.7,0.4-1.1,1.1-1.5,1.8C188.5,35.3,188.4,36.4,188.4,37.9z"/>
			<path class="st1" d="M209.8,23.5c0,0.7-0.3,1.3-0.8,1.8c-0.5,0.5-1.1,0.8-1.8,0.8c-0.7,0-1.3-0.3-1.8-0.8
				c-0.5-0.5-0.8-1.1-0.8-1.8s0.3-1.3,0.8-1.8c0.5-0.5,1.1-0.8,1.8-0.8c0.7,0,1.3,0.3,1.8,0.8C209.6,22.2,209.8,22.8,209.8,23.5z
				 M205.2,46.8V29h4.1v17.8H205.2z"/>
			<path class="st1" d="M212.9,43.5l2.6-2.6c0.7,1,1.5,1.8,2.3,2.3c0.8,0.5,1.7,0.8,2.7,0.8s1.7-0.2,2.3-0.6
				c0.6-0.4,0.9-0.8,0.9-1.5c0-0.6-0.3-1.1-0.9-1.5c-0.6-0.3-1.4-0.7-2.2-0.9c-1-0.3-2-0.7-3-1.1c-1.4-0.5-2.4-1.1-3-1.9
				c-0.7-0.8-1-1.6-1-2.7c0-1.5,0.7-2.7,2.1-3.7c1.4-1,2.9-1.5,4.8-1.5s3.6,0.5,4.9,1.4c0.7,0.5,1.2,1.1,1.5,1.9l-2.5,2.4
				c-0.4-0.5-0.7-1-1.2-1.4c-0.8-0.7-1.8-1-2.9-1c-0.7,0-1.3,0.2-1.8,0.5c-0.5,0.4-0.8,0.8-0.8,1.2c0,0.5,0.3,0.9,0.9,1.3
				c0.5,0.4,1.4,0.7,2.5,1.1c0.4,0.1,0.9,0.3,1.4,0.4c1.7,0.6,3,1.3,3.9,2.2c0.9,0.9,1.4,2,1.4,3.2c0,1.5-0.7,2.8-2.2,3.8
				c-1.5,1.1-3.2,1.6-5.4,1.6c-1.9,0-3.5-0.4-4.9-1.3C214.4,45.4,213.6,44.6,212.9,43.5L212.9,43.5z"/>
			<path class="st1" d="M236.5,23.3V29h3.9v3.2h-3.9v9.1c0,0.9,0.2,1.5,0.6,1.8c0.4,0.3,1,0.5,1.8,0.5h1.5v3.2h-2.4
				c-1.9,0-3.3-0.4-4.2-1.3c-0.9-0.8-1.3-2.1-1.3-3.8v-9.5h-3.1V29h3.1v-5.8L236.5,23.3L236.5,23.3z"/>
			<path class="st1" d="M244,46.9V29.1h3.8v2.7c0.6-0.9,1.3-1.5,2.2-2c1-0.6,2.2-0.9,3.6-0.9h0.3v3.6h-0.4c-1.7,0-3,0.5-4,1.5
				c-0.9,1-1.4,2.6-1.4,4.7v8.3L244,46.9L244,46.9z"/>
			<path class="st1" d="M262.6,46.2l-7-17.1h4.2l4.8,12.2l4.8-12.2h4.1l-9.9,24.7h-4.1L262.6,46.2L262.6,46.2z"/>
			<path class="st1" d="M294,47.3c-2.6,0-4.8-0.9-6.7-2.7c-1.9-1.8-2.8-4-2.8-6.6s0.9-4.8,2.8-6.7c1.8-1.8,4-2.7,6.7-2.7
				s4.8,0.9,6.7,2.7c1.8,1.8,2.7,4,2.7,6.7s-0.9,4.8-2.7,6.6C298.8,46.4,296.6,47.3,294,47.3z M294,43.9c1.5,0,2.7-0.5,3.8-1.7
				c1-1.1,1.6-2.5,1.6-4.3s-0.5-3.1-1.6-4.3c-1.1-1.1-2.3-1.7-3.8-1.7c-1.4,0-2.7,0.6-3.7,1.7c-1.1,1.2-1.6,2.6-1.6,4.3
				c0,1.8,0.5,3.2,1.6,4.3C291.3,43.4,292.5,43.9,294,43.9z"/>
			<path class="st1" d="M308.1,25.5c0-1.7,0.5-2.9,1.4-3.8c0.9-0.8,2.3-1.3,4.3-1.3h2v3.2h-1.2c-0.8,0-1.4,0.2-1.8,0.5
				c-0.4,0.3-0.6,0.9-0.6,1.8v3.1h3.6v3.2h-3.6v14.6h-4.1V32.3h-3.1v-3.2h3.1V25.5L308.1,25.5z"/>
			<path class="st1" d="M329,41.8l2.7-2.8c0.7,1.6,1.7,2.7,2.8,3.5c1.2,0.8,2.4,1.2,3.6,1.2c1.3,0,2.4-0.3,3.3-1
				c0.9-0.7,1.4-1.6,1.4-2.7c0-0.9-0.5-1.8-1.4-2.4c-0.9-0.6-2-1.1-3.1-1.5c-1.1-0.4-2.3-0.8-3.4-1.3c-1.9-0.7-3.2-1.6-4-2.7
				c-0.8-1.1-1.2-2.3-1.2-3.5c0-1.9,0.8-3.6,2.4-5c1.6-1.4,3.6-2,6-2c2.4,0,4.5,0.7,6.1,1.9c0.8,0.7,1.4,1.4,1.7,2.1l-2.5,2.6
				c-0.2-0.4-0.6-0.9-1.2-1.5c-1.2-1.1-2.6-1.6-4.3-1.6c-1.1,0-2,0.3-2.7,0.9c-0.8,0.6-1.2,1.4-1.2,2.3c0,1.5,1.6,2.8,4.8,3.9
				c0.6,0.2,1.2,0.4,1.8,0.7c2.2,0.8,3.8,1.8,4.9,2.9c1.1,1.2,1.6,2.5,1.6,4.2c0,2-0.8,3.7-2.5,5.1c-1.7,1.5-3.8,2.2-6.4,2.2
				c-2.4,0-4.4-0.5-6-1.6C330.7,44.6,329.7,43.3,329,41.8z"/>
			<path class="st1" d="M375.6,22.1v24.8h-4V26.9l-6.5,19.9h-3.9l-6.4-19.9v19.9h-4V22.1h6.1l6.3,19.3l6.3-19.3H375.6L375.6,22.1z"
				/>
			<path class="st1" d="M397.2,46.9h-16.3V22.1h16.2v3.5h-12.1v7.2h11.8V36h-11.8v7.4h12.1V46.9z"/>
			<path class="st1" d="M399.9,43.5l2.6-2.6c0.7,1,1.5,1.8,2.3,2.3c0.8,0.5,1.7,0.8,2.7,0.8c0.9,0,1.7-0.2,2.3-0.6
				c0.6-0.4,0.9-0.8,0.9-1.5c0-0.6-0.3-1.1-0.9-1.5c-0.6-0.3-1.4-0.7-2.2-0.9c-1-0.3-2-0.7-3-1.1c-1.4-0.5-2.4-1.1-3-1.9
				c-0.7-0.8-1-1.6-1-2.7c0-1.5,0.7-2.7,2.1-3.7c1.4-1,2.9-1.5,4.8-1.5s3.6,0.5,4.9,1.4c0.7,0.5,1.2,1.1,1.5,1.9l-2.5,2.4
				c-0.4-0.5-0.7-1-1.2-1.4c-0.8-0.7-1.8-1-2.9-1c-0.7,0-1.3,0.2-1.8,0.5c-0.5,0.4-0.8,0.8-0.8,1.2c0,0.5,0.3,0.9,0.9,1.3
				c0.5,0.4,1.4,0.7,2.5,1.1c0.4,0.1,0.9,0.3,1.4,0.4c1.7,0.6,3,1.3,3.9,2.2c0.9,0.9,1.4,2,1.4,3.2c0,1.5-0.7,2.8-2.2,3.8
				c-1.5,1.1-3.2,1.6-5.4,1.6c-1.9,0-3.5-0.4-4.9-1.3C401.5,45.4,400.6,44.6,399.9,43.5L399.9,43.5z"/>
		</g>
		<g>
			<path class="st1" d="M92.1,52.7c-8.9-6-20.3-3.6-26.3,5.5c-5,7.6-12.5,8.5-15.4,8.5c-9.5,0-16-6.7-18-13.6l0,0c0-0.1,0-0.1,0-0.2
				c0-0.1,0-0.2-0.1-0.2c-0.8-2.9-0.9-4.3-0.9-7.3c0-16.5,17-35,41.4-35c25,0,39.4,19.1,43.1,29.7c-0.1-0.2-0.1-0.4-0.2-0.6
				C108.7,18.8,89,3.8,65.8,3.8c-29.1,0-52.7,23.6-52.7,52.7c0,26,18.8,48.3,44.8,48.3c20.8,0,34.7-11.6,41.1-27.7
				C102.6,68.4,100.1,58.1,92.1,52.7L92.1,52.7z"/>
			<path class="st1" d="M116.3,41c-3.1-10.3-17.5-30.7-43.4-30.7c-24.4,0-41.4,18.4-41.4,35c0,3.1,0.2,4.5,0.9,7.3
				c-0.3-1.3-0.5-2.5-0.5-3.8c0-17.2,17.2-29.2,35-29.2c24,0,43.5,19.5,43.5,43.5c0,18.8-10.8,35.1-26.6,43l0,0
				c20.3-7.3,34.8-26.8,34.8-49.6C118.6,51.2,117.8,46.4,116.3,41L116.3,41z"/>
		</g>
		<g>
			<path class="st1" d="M152.6,78.9h4.2c0-1.1-0.5-2-1.4-2.6c-0.9-0.6-2.3-0.9-3.9-0.9h-0.1c-1.6,0-3.3,0.4-5.1,1.1l-1-3.2
				c1.9-0.8,3.9-1.2,6.2-1.2h0.1c3,0,5.3,0.6,6.9,1.7c1.6,1.2,2.4,3,2.4,5.5v11H157v-2c-0.8,0.8-1.7,1.4-2.8,1.8
				c-1.1,0.4-2.3,0.7-3.4,0.7c-2.1,0-3.8-0.5-5.1-1.7c-1.4-1.1-2-2.5-2-4.1c0-1.8,0.8-3.3,2.5-4.5C147.7,79.5,149.8,78.9,152.6,78.9
				L152.6,78.9z M151.5,87.7c1,0,2.1-0.3,3.1-0.8c1-0.5,1.8-1.1,2.2-1.8v-3h-3.6c-2,0-3.5,0.3-4.3,0.8c-0.8,0.6-1.2,1.3-1.2,2.1
				s0.3,1.4,1,1.9C149.5,87.4,150.4,87.7,151.5,87.7L151.5,87.7z"/>
			<path class="st1" d="M169.8,81.5v9h-4V72.6h3.9V75c0.4-0.8,1.1-1.5,2.1-2c0.9-0.5,1.9-0.8,2.9-0.8c2.1,0,3.7,0.7,5.1,2.2
				c1.2,1.5,1.9,3.3,1.9,5.8v10.3h-4v-9.3c0-1.9-0.3-3.3-0.9-4.2c-0.7-0.9-1.6-1.4-2.9-1.4c-0.7,0-1.3,0.2-1.9,0.7
				c-0.7,0.4-1.1,1.1-1.5,1.8C170,78.9,169.8,80,169.8,81.5L169.8,81.5z"/>
			<path class="st1" d="M194.1,72.2c2.1,0,3.9,0.9,5.5,2.5V64h4v26.4h-3.9v-2.3c-1.5,1.8-3.4,2.7-5.6,2.7c-2.6,0-4.7-0.9-6.3-2.8
				c-1.6-1.8-2.4-4-2.4-6.5c0-2.5,0.8-4.7,2.4-6.6C189.4,73.1,191.5,72.2,194.1,72.2L194.1,72.2z M199.5,82.7c0.1-0.8,0.1-1.5,0-2.3
				c-0.1-1.3-0.7-2.4-1.5-3.3c-0.9-1-2.2-1.5-3.5-1.5c-1.6,0-2.8,0.6-3.7,1.7c-0.9,1.2-1.4,2.6-1.4,4.3s0.4,3.2,1.4,4.3
				c0.9,1.2,2.1,1.7,3.7,1.7c1.4,0,2.6-0.5,3.5-1.5C198.8,85.2,199.4,84,199.5,82.7L199.5,82.7z"/>
			<path class="st1" d="M218.2,85.4l2.7-2.8c0.7,1.6,1.7,2.7,2.8,3.5c1.2,0.8,2.4,1.2,3.6,1.2c1.3,0,2.4-0.3,3.3-1
				c0.9-0.7,1.4-1.6,1.4-2.7c0-0.9-0.5-1.8-1.4-2.4c-0.9-0.6-2-1.1-3.1-1.5c-1.1-0.4-2.3-0.8-3.4-1.3c-1.9-0.7-3.2-1.6-4-2.7
				c-0.8-1.1-1.2-2.3-1.2-3.5c0-1.9,0.8-3.6,2.4-5c1.6-1.4,3.6-2,6-2c2.5,0,4.5,0.7,6.1,1.9c0.8,0.7,1.4,1.4,1.7,2.1l-2.5,2.6
				c-0.2-0.4-0.6-0.9-1.2-1.5c-1.2-1.1-2.6-1.6-4.3-1.6c-1.1,0-2,0.3-2.7,0.9c-0.8,0.6-1.2,1.4-1.2,2.3c0,1.5,1.6,2.8,4.8,3.9
				c0.6,0.2,1.2,0.4,1.8,0.7c2.2,0.8,3.8,1.8,4.9,2.9c1.1,1.2,1.6,2.6,1.6,4.2c0,2-0.8,3.7-2.5,5.1c-1.7,1.5-3.8,2.2-6.4,2.2
				c-2.4,0-4.4-0.5-6-1.6C220,88.2,218.9,86.9,218.2,85.4L218.2,85.4z"/>
			<path class="st1" d="M244.5,66.9v5.8h3.9v3.2h-3.9v9.1c0,0.9,0.2,1.5,0.6,1.8c0.4,0.3,1,0.5,1.8,0.5h1.5v3.2h-2.4
				c-1.9,0-3.3-0.4-4.2-1.3c-0.9-0.8-1.3-2.1-1.3-3.8v-9.5h-3.1v-3.2h3.1v-5.8L244.5,66.9L244.5,66.9z"/>
			<path class="st1" d="M259.7,78.9h4.2c0-1.1-0.5-2-1.4-2.6c-0.9-0.6-2.3-0.9-3.9-0.9h-0.1c-1.6,0-3.3,0.4-5.1,1.1l-1-3.2
				c1.9-0.8,3.9-1.2,6.2-1.2h0.1c3,0,5.3,0.6,6.9,1.7c1.6,1.2,2.4,3,2.4,5.5v11H264v-2c-0.8,0.8-1.7,1.4-2.8,1.8
				c-1.1,0.4-2.3,0.7-3.4,0.7c-2.1,0-3.8-0.5-5.1-1.7c-1.4-1.1-2-2.5-2-4.1c0-1.8,0.8-3.3,2.5-4.5C254.7,79.5,256.9,78.9,259.7,78.9
				L259.7,78.9z M258.6,87.7c1,0,2.1-0.3,3.1-0.8c1-0.5,1.8-1.1,2.2-1.8v-3h-3.6c-2,0-3.5,0.3-4.3,0.8c-0.8,0.6-1.2,1.3-1.2,2.1
				s0.3,1.4,1,1.9C256.5,87.4,257.4,87.7,258.6,87.7L258.6,87.7z"/>
			<path class="st1" d="M272.8,90.4V72.7h3.8v2.7c0.6-0.9,1.3-1.5,2.2-2c1-0.6,2.2-0.9,3.6-0.9h0.3V76h-0.4c-1.7,0-3,0.5-4,1.5
				c-0.9,1-1.4,2.5-1.4,4.7v8.3L272.8,90.4L272.8,90.4z"/>
			<path class="st1" d="M292.2,66.9v5.8h3.9v3.2h-3.9v9.1c0,0.9,0.2,1.5,0.6,1.8c0.4,0.3,1,0.5,1.8,0.5h1.5v3.2h-2.4
				c-1.9,0-3.3-0.4-4.2-1.3c-0.9-0.8-1.3-2.1-1.3-3.8v-9.5h-3.1v-3.2h3.1v-5.8L292.2,66.9L292.2,66.9z"/>
			<path class="st1" d="M311.5,81.6v-9h4v17.8h-3.9v-2.4c-0.5,0.9-1.2,1.6-2,2c-1,0.5-2,0.8-3,0.8c-2.1,0-3.8-0.7-5-2.2
				c-1.3-1.4-1.9-3.3-1.9-5.8V72.6h4v9.3c0,1.9,0.3,3.3,0.9,4.2c0.6,0.9,1.5,1.4,2.8,1.4c0.7,0,1.3-0.2,1.9-0.7
				c0.6-0.4,1.1-1,1.5-1.8C311.3,84.2,311.5,83,311.5,81.6L311.5,81.6z"/>
			<path class="st1" d="M330,90.9c-2.2,0-4-0.8-5.5-2.5v9h-4V72.7h3.9v2.3c1.5-1.8,3.4-2.7,5.6-2.7c2.6,0,4.7,0.9,6.3,2.8
				c1.6,1.9,2.4,4.1,2.4,6.6c0,2.5-0.8,4.7-2.4,6.5C334.7,90,332.6,90.9,330,90.9L330,90.9z M324.6,82.7c0.1,1.4,0.6,2.5,1.5,3.3
				c0.9,1,2.1,1.5,3.5,1.5c1.5,0,2.8-0.5,3.7-1.7c0.9-1.1,1.4-2.5,1.4-4.3c0-1.7-0.5-3.1-1.4-4.3c-0.9-1.1-2.2-1.7-3.7-1.7
				c-1.4,0-2.6,0.5-3.5,1.5c-0.9,0.9-1.4,2-1.5,3.3C324.5,81.2,324.5,81.9,324.6,82.7L324.6,82.7z"/>
			<path class="st1" d="M340.8,87.1l2.5-2.6c0.7,1,1.5,1.8,2.3,2.3c0.8,0.5,1.7,0.8,2.7,0.8c0.9,0,1.7-0.2,2.3-0.6
				c0.6-0.4,0.9-0.8,0.9-1.5c0-0.6-0.3-1.1-0.9-1.5c-0.6-0.3-1.4-0.7-2.2-0.9c-1-0.3-2-0.7-3-1.1c-1.4-0.5-2.4-1.1-3-1.9
				c-0.7-0.8-1-1.6-1-2.7c0-1.5,0.7-2.7,2.1-3.7c1.4-1,2.9-1.5,4.8-1.5c1.9,0,3.6,0.5,4.9,1.4c0.7,0.5,1.2,1.1,1.5,1.9l-2.5,2.4
				c-0.4-0.5-0.7-1-1.2-1.4c-0.8-0.7-1.8-1-2.9-1c-0.7,0-1.3,0.2-1.8,0.5c-0.5,0.4-0.8,0.8-0.8,1.2c0,0.5,0.3,0.9,0.9,1.3
				c0.5,0.4,1.4,0.7,2.5,1.1c0.4,0.1,0.9,0.3,1.4,0.4c1.7,0.6,3,1.3,3.9,2.2c0.9,0.9,1.4,2,1.4,3.2c0,1.5-0.7,2.8-2.2,3.8
				c-1.5,1.1-3.2,1.6-5.4,1.6c-1.9,0-3.5-0.4-4.9-1.3C342.4,89,341.5,88.2,340.8,87.1L340.8,87.1z"/>
		</g>
	</g>
</g>
</svg>
